<svg xmlns="http://www.w3.org/2000/svg" width="222.841" height="309.346" viewBox="0 0 222.841 309.346">
  <g id="ferrari_logo_w" data-name="ferrari logo w" transform="translate(0.097 0)">
    <path id="Path_1" data-name="Path 1" d="M506,364.64a11.319,11.319,0,0,0,2.63,1.25c1,.28,2.35,1,2.63.14a3.525,3.525,0,0,0-.83-2.91c-1.11-1.8-1.66-2.22-3.18-4.71-.28-.55-.55-1.11-1.11-1.11a9.651,9.651,0,0,1-.69,2.91c-.42,1-1.52,1.66-1.38,2.35a3.43,3.43,0,0,0,1.93,2.08Z" transform="translate(-400.72 -357.3)" fill="#fff"/>
    <path id="Path_2" data-name="Path 2" d="M621.72,483.29c-1.25,1.66-1.8,5-3.6,7.75-2.49,3.88-6.09,8.58-7.89,8.58-1,0-1.25-2.22-1.25-2.22a12.59,12.59,0,0,1,.83-8.45,27.109,27.109,0,0,1,4.29-6.78,33.922,33.922,0,0,0,4.15-6.09,17.259,17.259,0,0,0,2.08-6.09c.14-.83-.14-2.63-1-2.49-1.11,0-4.15,6.65-7.34,10.38a80.751,80.751,0,0,1-8.72,7.89s-.55.42-.55-.69a22,22,0,0,1,.28-6.51,28.54,28.54,0,0,1,3.74-9.28,44.24,44.24,0,0,1,7.61-9.41c.69-.69,2.77-1.94,1.66-2.63s-3.88,1.94-6.09,3.6a28.229,28.229,0,0,0-6.51,6,30.125,30.125,0,0,0-3.46,4.71,27.9,27.9,0,0,0-3.32,8.45,44.092,44.092,0,0,0-.69,6.51,42.076,42.076,0,0,0,.42,6,53.5,53.5,0,0,0,1.25,6s1.38,4,1.94,6.51,1.52,9.83,1.52,9.83a55.38,55.38,0,0,1,.28,10.25c-.42,5-.83,7.89-1.38,9.41a26.8,26.8,0,0,1-4.57,8.31,31.471,31.471,0,0,1-2.91,3,33.469,33.469,0,0,1-4.57,3.18,47.994,47.994,0,0,1-6.51,2.91,29.666,29.666,0,0,1-3.46.42h-1.8l-.55-.42-.28-1.11a59.6,59.6,0,0,0-3-8.86,56.907,56.907,0,0,0-4.29-6.92,103.638,103.638,0,0,0-8.86-10.52c-4.43-4.43-9.41-7.75-12.46-10.11-1.11-.83-3.6-2.35-3.6-2.35s-10.11-10.2-13.74-18.23c-2.49-5.54-4.15-9.55-3.46-15.64.14-1.38.69-4,1-4l1.8.55a11.831,11.831,0,0,0,3.32,2.22,22.8,22.8,0,0,0,2.35.55s1.25.14,1.94.28a14.273,14.273,0,0,1,2.77,1.11c.83.42,2.08,1.25,2.08,1.25l2.35,1.8,2.49,1.94a14.606,14.606,0,0,0,1.8,1.11,5.446,5.446,0,0,0,.83.28h.55a1,1,0,0,0,.69-.69c.14-.69-.69-.14-1.94-1.52a9,9,0,0,1-1.94-2.35,6.23,6.23,0,0,0-1.38-2.35,23.414,23.414,0,0,0-2.49-2.35,8.821,8.821,0,0,0-2.35-1.11c-1.38-.42-1.8-.42-1.94-1s1.66-.28,1.66-.28a13.76,13.76,0,0,1,3.74,1.11,11,11,0,0,1,2.63,1.8l1.11,1,.69.69.69.42s.69.69.83-.28a2.33,2.33,0,0,0-.28-1.66l-.69-.69-2.77-2.35a13.872,13.872,0,0,0-2.22-1.94,16.829,16.829,0,0,0-3.6-1.94c-1.38-.55-2.22-.42-3.6-1.11a4.66,4.66,0,0,1-2.35-1.52c-.14-.14-.83-.69.42-.42s2.08.69,3.46,1c2.22.55,3.6.55,5.68,1.25a18.44,18.44,0,0,1,1.94.83l2.63,1.11s3.6,1.94,6.09,2.08a12,12,0,0,0,5.4-.83,10.467,10.467,0,0,0,2.77-1.66,6.139,6.139,0,0,0,.69-.83l.28-.69v-.55c-.69-.83-2.08,1.38-4.29,1.8s-2.22.69-3.74.42a6.15,6.15,0,0,1-3.88-1.94c-2.22-2.08-3-4-6-5.26a27.516,27.516,0,0,0-3.46-1.11,30.249,30.249,0,0,1-4.71-1.94c-1.25-.69-3.88-1.11-3-2.22.42-.55,3.74,1.38,6.23,1.66a24.754,24.754,0,0,0,4.43.14,32.7,32.7,0,0,0,3.6-.42,5.409,5.409,0,0,1,2.35.28,19.607,19.607,0,0,1,2.49,1.11c1,.42,2.08,1.11,2.35,1.11l.55.14.28-.28.14-.28-.14-.28-.42-.28-.83-.55a12,12,0,0,1-2.35-1.8c-1.11-1.11-2.08-2.35-3.74-2.91a24,24,0,0,0-3.6-.83l-1.94-.14-.83-.14s-1.38-.42-.28-.69a12.1,12.1,0,0,1,1.94-.42,6.37,6.37,0,0,1,3.18.14c1.11.42,2.91,1.38,3,1.38a10,10,0,0,0,3.6,1.8,30.068,30.068,0,0,0,4.15.55l1.11-.28.55-.14.42-.28-.14-.69s0-.55-.83-.69a9.159,9.159,0,0,1-4-1.52,24.555,24.555,0,0,1-2.63-2.22,8.48,8.48,0,0,0-3.32-1.52,13.271,13.271,0,0,0-2.77-.55l-.69-.28-1.52-.69a5.279,5.279,0,0,1-1.25-1.11c-.55-.69-1.38-1.94,1-1.25A11.089,11.089,0,0,1,547,447.3a5.27,5.27,0,0,0,2.35,1.38c.69.14,1.25.28,1.66-.28.69-.69-1.25-1.52-2.63-2.49a9.35,9.35,0,0,1-2.22-2.49s-.83-.69.42-.42a16,16,0,0,1,3.46,1.66,12,12,0,0,0,1.66.69c.42.14,1.52.83,2.08,1.11a17.207,17.207,0,0,1,2.49.83c1.11.69,1.66,1.8,2.22,2.22s1,1.11,1.66,1.25.83.42,1.25.14a4.085,4.085,0,0,0,.55-.42s.14-.28-.55-.69a7.35,7.35,0,0,1-1.52-1.52l-.28-.55-.14-.55-.69-1.11-1.25-1.8a15.11,15.11,0,0,0-3.74-3.6,24.57,24.57,0,0,0-2.91-1.52s-.83-.42-1.25-.69a8.69,8.69,0,0,1-1.52-1.66,25.265,25.265,0,0,0-1.8-2.22c-1.52-1.52-6.23-2.35-4.43-3.46a3.89,3.89,0,0,1,2.77-.14c.55.14,1.8.69,3,1.11.83.28,1.38.28,2.22.55a14.277,14.277,0,0,1,2.22.69c.42.28.83.83,1.11,1a9.35,9.35,0,0,0,3.18,2.91c1.94,1,2.91,1.66,4.85,1.8a17.08,17.08,0,0,0,4-.42s.69-.28.14-1-.69-.83-1.25-1c-2.22-.83-4-.55-5.68-2.22a5.58,5.58,0,0,1-1.52-1.94c-.55-1.11-.28-1.38-.69-2.08a10.34,10.34,0,0,0-1-1.66A18.819,18.819,0,0,0,551,425a24.892,24.892,0,0,1-4.29-2.77,9,9,0,0,1-1.25-1.38l-.69-1.11-.42-.83c-.28-1.52,2.49.42,4,1,2.49.83,3.74,1.94,6.23,2.77a34.67,34.67,0,0,1,3.6,1c2.35,1,3,3.32,5.54,3.6,1.38.14,4.15.69,3.6-.55s-3.32-1.38-4.71-3c-.69-.69-.69-1.38-1.38-2.08a13.082,13.082,0,0,0-3.74-2.63,8.65,8.65,0,0,1-1.8-2.63c-.83-1.94-2.91-3.32-6.65-5.12-2.49-1.25-7.48-1.52-5.54-2.77,1.11-.83,2.08-.69,3.6-.28a36.006,36.006,0,0,1,3.32,1.8c1.25.55,1.8.69,2.08.83a5.86,5.86,0,0,0,1.66.55c.28.14,2.35.42,2.91.55l2.77.69,2.22.83a6.789,6.789,0,0,0,1.8.42,9.69,9.69,0,0,0,1.8-.28l.83-.55.14-.28s.42-.69-.69-.83a11.525,11.525,0,0,0-1.66-.14l-1-.28-.42-.14a19.139,19.139,0,0,0-3.6-2.22c-1.8-.69-2.08-.83-2.08-.83l-.69-.14-.83-.14a3.18,3.18,0,0,1-1.8-1c-1.11-1-1.52-1.52-2.49-2.49l-1.25-1.25s-1.11-.83-1.11-1.52c.14-1.11,2.49,1.25,2.49,1.25l1.66,1.11a8,8,0,0,0,3.88,1.11,20.831,20.831,0,0,0,5.54-.69s.42-.28,1.8.14a9,9,0,0,1,2.49,1.25l1.11,1,1.66,1.8.28-.14c.14-.14.83-.83-.42-2.35a17.858,17.858,0,0,0-3.32-2.91,20.371,20.371,0,0,0-5.54-2.22,23.47,23.47,0,0,0-4-.55,4.93,4.93,0,0,1-3.32-1.38,20.2,20.2,0,0,1-2.08-2.77l-.42-1.94a5.54,5.54,0,0,0-2.08-1.38,28.8,28.8,0,0,1-2.63-1.38s-2.08-.69-2.22-1.66c-.42-1.8,3.46,0,5.54.42s2.77,1.11,4.71,1.52a11.8,11.8,0,0,0,4.43.42,15.261,15.261,0,0,0,2.49-.28,16.69,16.69,0,0,1,2.63,0c1.38.28,1.94,1,3.32,1.52a6.36,6.36,0,0,0,2.22,1c.83.14,2.49.69,2.22-.14l-.42-.55c-.69-1-1.52-1-2.35-1.66-1.8-1.38-2.63-2.49-4.71-3.46a11.9,11.9,0,0,0-3.74-1.25,22.447,22.447,0,0,1-3-.14,15.581,15.581,0,0,1-2.91-1.66,37.476,37.476,0,0,0-5.12-2.91,33.821,33.821,0,0,0-3.74-1.11l-1-.14-.42-.14c-1.94-.69,3.46-2.22,6-2.91a7.729,7.729,0,0,1,3-.42c1.11.14,2.35,1.66,3.6,1,1.8-1-2.08-3.6-3.32-4-1.66-.69-4.57-.14-4.57-.14l-6.37-.14-1.8-.28a2.76,2.76,0,0,1-1.94-1c-.83-1-4-4.85-7.61-5.4s-4.85,0-5.12-.28c-3.18-5-6.51-6.09-9-8.45-.69-.69-1.8-2.22-2.08-2.08s-.69,2.22-1.38,4a4,4,0,0,0,.14,3.88c.55.83,1.25,1.38-.14,2.22a5.4,5.4,0,0,1-3.18.55,10.391,10.391,0,0,1-2.77-1c-1.25-.55-3.88-1.66-3.88-1.66a15.091,15.091,0,0,0-4.15-.55c-1.66.14-1.8.28-3,.42a6.74,6.74,0,0,0-1.66.14c-.55.14-1.25-.28-1.25.42s1.38.69,2.35,1.11,3.18.42,2.77,1a4.47,4.47,0,0,1-2.77.55,21.29,21.29,0,0,0-2.63-.28c-1.8.14-1.94.14-4.57,1.38-.42.14-.28,1.11.55.83a14.43,14.43,0,0,1,3.88-.55c1.66,0,2.63.55,4.29,1a14.591,14.591,0,0,0,3.6,1c.42,0,1.25-.28,1.25.28,0,.28-.55.69-.55.69s-1.25.28-1.11.69,1.38,0,1.94,0,1.38.14,1.25.69l-.28.42a29.585,29.585,0,0,0-3.74,1.25c-3.46,1.38-4.85,3-8.17,4.71a80.772,80.772,0,0,1-8.31,3.46,17.391,17.391,0,0,1-3.74,1.38,33.62,33.62,0,0,1-3.88.69,7.31,7.31,0,0,0-3.46,1.11,6.729,6.729,0,0,0-1.94,1.52l-1.94,2.91-1.11,1.66a6.47,6.47,0,0,0-.69,1.38,7.809,7.809,0,0,0-.55,1.66c-.42,1.66,0,2.63.28,4.29.14.42.14.69.28,1.11a2.28,2.28,0,0,0,.69.83l.55.14a27.655,27.655,0,0,0,3.18-.42l3-.69,2.35-.69,1.52-.55s1,0,1.11.55a1.668,1.668,0,0,1-.28,1.11s-.83.42-1.52.69-2.35.69-2.49.83l-1.8.55-1.52.14a1.66,1.66,0,0,0-.55.55c-.28.42-.28.42-.28.69.28.28.42.55.69.83a3.3,3.3,0,0,0,1.52.83,5.15,5.15,0,0,0,2.49.28,7.51,7.51,0,0,0,3.46-.83,12.627,12.627,0,0,1,3-1.25,7.142,7.142,0,0,1,1.52-.28c2.63-.28,4.15.14,6.78.55s3.88,1.25,6.51,1.66,4.43,1.25,7.34.55c1.38-.28,2.22-1,2.91.42a3.18,3.18,0,0,1,.55,1.94,12.769,12.769,0,0,1-1,3.46c-1,2.63-4,9.14-4,9.14l-2.08,4.15a38.411,38.411,0,0,1-5.54,7.61c-3.88,4.29-4.15,4.57-4.15,4.57a24.172,24.172,0,0,0-4.15,4.15c-2.08,2.63-2.08,3.6-4,5.54a17.528,17.528,0,0,1-3.46,2.91c-1.52,1-3.32.69-8.17,4-4.15,2.91-6.37,5.26-6.65,5.12s-1.66-1.25-2.22-1.52l-8.45-5.68-3.32-2.22-1.52-1-.28-.55-.83-1.11a22.477,22.477,0,0,0-2.77-2.77,11.809,11.809,0,0,0-5.68-3c-2.35-.69-3.88-1.11-6.23-.28a8.28,8.28,0,0,0-3.46,2.22c-1.38,1.38-1.66,2.49-2.77,4.15s-2.22,3.18-2.77,4-1.66,3-1.66,3-2.77,4.43-4.29,7.34c-1.8,3.18-2.49,5.12-4.15,8.17-2.63,4.85-6.37,9.83-7.34,12s-1.11,2.49-1.11,2.49-.28,1.25-.42,2.08-.14,2.22-.28,2.77a3.91,3.91,0,0,1-.69,1.52,30.35,30.35,0,0,0-2.22,5.4c-.55,2.08-1.8,8.58-.28,9.41s12.74-4,14.26-8.72c1-3-3-4.57-1.94-7.34a9,9,0,0,1,1.38-2.08c1.11-1.8.69-5.54,2.77-9,1.52-2.49,4.57-5.68,8.72-10.38a45.236,45.236,0,0,0,5.12-7.61s.55-1.66,1.66-1.38a7.7,7.7,0,0,0,2.35.14l.55.42,1.11,1.11,1.66,2.49s2.77,4,3.74,5.12a24.122,24.122,0,0,0,3.32,3c1.52,1.38,2.08,2.08,4,3.6,2.77,2.22,1.8,3-1.8,1.11a23.728,23.728,0,0,0-4.71-1.8c-1.66-.42-7.89-2.08-11.08-2.49a14.37,14.37,0,0,0-3.6-.28,5.9,5.9,0,0,0-3.32,1,23.876,23.876,0,0,0-2.77,1.94,27.511,27.511,0,0,0-2.22,2.77c-.14.42-1.11,2.08-1.11,2.08a4.94,4.94,0,0,0-.69,1.8,5.25,5.25,0,0,0-.14,1.94l.14,2.08.14,1.94s.42,4.85,1.38,9.69c.28,1.38.55,3.6.55,3.6l.69,5s.42,5.26.83,7.06a23.681,23.681,0,0,0,1,2.91c.55,2.08-.42,3,.55,5.54s1.8,2.22,2.77,3.74a13.09,13.09,0,0,1,1.52,2.77,63.463,63.463,0,0,0,4.43,9.28c2.22,3.46,5.12,7.75,7.06,7.34s3.32-3.46,3.32-3.46,2.22-6,.83-11.77-7.75-3.18-8.58-7.48a13.709,13.709,0,0,1,0-2.49A10.45,10.45,0,0,0,435,518a41.909,41.909,0,0,1-3.32-8.17c-.69-2.63-.55-11.08-1.11-13.43-1.52-6.09-1.66-5.54-.83-6.65a1.746,1.746,0,0,1,1.8-.83l1.25.14,1,.42s1.11.69,1.8,1.11,2.49,1.94,2.49,1.94l4.71,3s2.63,1.52,3.74,2.08a17.6,17.6,0,0,1,2.08,1.25l1.25.83,2.08,1.52.42.42.28.55s1,2.22,5.12,4.57c3.32,1.94,6.23,1.38,7.48,2.91a52.379,52.379,0,0,1,3.74,5.4c1.38,2.22,3,4.85,3.6,5.68s4,5.12,4,5.12l4.57,5,6,5.54,5.4,4.57,3.46,2.77a58.123,58.123,0,0,0,6.51,5.26c3.32,2.22,3.46,2.49,5.68,4,1.66,1.11,3.88,2.63,6.09,4.29s4.71,5.12,3.74,6.23c-.69.42-1.94-1.38-4.29-3.46a59.4,59.4,0,0,0-4.85-3.88,54.709,54.709,0,0,0-6.51-4.57c-1.38-.83-3.88-2.35-4-2.08-1,2.91-.83,5.68-.69,9.28a40.261,40.261,0,0,0,1.38,8.17,48.993,48.993,0,0,0,2.49,7.61c1.11,2.91,3.18,7.48,3.18,7.48l3.18,6.37,2.91,4.85,1.52,2.49.55.83a3.51,3.51,0,0,1,0,2.77c-.69,1.11-1.52,3.46-2.77,3.6a36.363,36.363,0,0,1-4.15.42l-16.48-.28-8.58-.69s-1-.55-6-.55c-2.91,0-5.26,1.25-6.92,1.38-1.38.14-8.17-.42-12.74,1.38-4.29,1.8-6.23,2.22-7.75,5-1.11,2.08,5.4,5.4,10.8,6.65,8.72,1.94,6.23-1.8,9.55-4.15.42-.28.55-.55,1-.69,2.22-.69,3.46,1.11,5.68,1.11,2.49,0,3.88-.83,6.37-1.25,12.6-1.66,32.26,4.29,32.26,4.29s4.85,1.52,7.06,1.11c2.63-.55,2.08-1.52,2.91-3,.69-1.25.42-1.52.55-2.91a10.688,10.688,0,0,0-.28-2.08,38.513,38.513,0,0,0-2.08-5.68s-1.11-2.49-1.52-3.74a27.882,27.882,0,0,1-1.38-4.85c-.83-5.12-.69-4.71-.69-7.61a43.522,43.522,0,0,1,1.94-13.29c2.08-7.48,6-10.66,8.86-17.86.83-1.94.83-4.71,1.8-5s1,3.46.42,5.54c-1.8,7.2-6.23,10.25-8.31,17.58-1.52,5.68-2.35,9-1.94,14.81a53.176,53.176,0,0,0,1.38,8.17s1.66,5.54,2.49,7.61,2.49,5.54,2.49,5.54l3.74,6.65,1.94,3.18a3.16,3.16,0,0,1,.69,3.32c-.69,2.08-2.08,3.32-3.74,5.12-4.71,5.54-15.64,13.71-18.41,15.64-3.88,2.91-3.74,3.74-4,4.57-1.52,4.43-6,4.57-10.8,9.83-1.11,1.11-4,4.15-3.46,6.78.28,1,12.18,3,19.11.14,5.4-2.35.69-5,2.22-7.61,1.11-1.94,3.88-1.94,5.12-3.6,2.08-2.77.69-2.63,2.49-4.85,6-7.2,9.83-11.35,20.49-17.86,1-.55,2.77-1.38,2.77-1.38a6,6,0,0,0,2.08-1.52,5.49,5.49,0,0,0,.55-3.32c0-.83-.14-1.25-.14-2.08a7.56,7.56,0,0,0-.14-2.49,9.711,9.711,0,0,0-1.8-3.6,9.911,9.911,0,0,1-2.08-4.57,11.59,11.59,0,0,1,.42-7.75,16.43,16.43,0,0,1,3.6-5.26l6.23-4.15s5.4-3.88,7.06-5.4a46.607,46.607,0,0,0,7.75-8.31c2.91-4,4.43-6.51,5.68-11.35.42-1.8.83-4.57.83-4.57s0-1.94,1.11-2.08,1.38.28,1.38.28,1,.55,1.25,3.32a23.218,23.218,0,0,1-.69,6s-.83,3.18-1.11,5.12a25.591,25.591,0,0,0-.14,3.32,10.669,10.669,0,0,0,1,4.29s.55.42.55-.55a20.482,20.482,0,0,1,.69-4.43c.42-1.38.69-1.11,1.52-3.46,1.11-3,.14-2.77.69-4.57.28-.83,1-1.66,1.8-1.66s1,1.11,1,1.11a18.539,18.539,0,0,1,.14,6.92,36.786,36.786,0,0,1-3.18,7.89l-1.94,3.32a31.121,31.121,0,0,0-1.94,3.88,6.389,6.389,0,0,0-.42,3.88c.42,1.66,1.66,3.88,2.35,3.46s-.83-1.8.83-5.12a20.9,20.9,0,0,1,3.88-5.4,41.254,41.254,0,0,0,4.43-6.37,54.186,54.186,0,0,0,2.49-6.51,22.459,22.459,0,0,0,.69-6.65,16.541,16.541,0,0,0-.69-4.43l-1.25-2.22-.69-1.66.28-1c.28-.14,1.25.55,2.08,1.66a11,11,0,0,1,2.08,4.43,13.112,13.112,0,0,1,.55,3.88c0,1.11-.42,5.68,1.25,8.58.69,1.38,2.35,4.57,2.49,3.18.28-3.18-1.11-4.71-1-7.61.14-3.32,1-2.49,1.25-4.15s.69-2.22.42-4.57a32.839,32.839,0,0,0-1.25-5.12l-1-2.22-.42-.83a1,1,0,0,1,.69-.42l3.32-1.11a36.771,36.771,0,0,0,6-3.32,30.21,30.21,0,0,0,3.88-3.46,55.331,55.331,0,0,0,4.15-6c3.32-6.23,3.32-14.12,3.18-17.72a58.666,58.666,0,0,0-1.11-8,42.814,42.814,0,0,1-.83-9.14c.28-3.6.55-5.26.55-5.26a12.451,12.451,0,0,1,2.91-7.48c3-3.88,4.43-6.37,5-9.28.55-2.49-.28-6.51-1.38-5Zm-91.65-24.92c-.42,0-1-.55-1-.55s-.14-.14.28-.42a1.36,1.36,0,0,1,1-.14l.42.14.69,1c-.15.39-.98.11-1.39-.03Zm1.66-4.57a7.7,7.7,0,0,1-1.11-.55s-.14-.28.28-.55a1.741,1.741,0,0,1,1.11-.14l.42.28c.14.14.83.83.83,1.11s-.98-.01-1.53-.15Zm1.52-4.71a6,6,0,0,1-1.38-.69s-.14-.28.42-.55a2.69,2.69,0,0,1,1.38-.14l.55.28c.28.28,1,1,1,1.38s-1.41-.13-1.97-.27Zm1.25-4.29a6,6,0,0,1-1.38-.69s-.14-.28.42-.55a2.69,2.69,0,0,1,1.38-.14l.55.28c.28.28,1,1,1,1.38s-1.42-.27-1.97-.27Zm1.25-5.12a4.42,4.42,0,0,1-1.52-.83s-.14-.28.42-.69a2,2,0,0,1,1.52-.14l.55.28c.28.28,1.11,1.11,1.11,1.52s-1.53-.14-2.09-.14Zm.83-5.54a5.881,5.881,0,0,1-1.94-1s-.28-.42.55-.83a3.351,3.351,0,0,1,1.8-.28l.69.42a7,7,0,0,1,1.38,1.94c.01.61-1.66-.11-2.49-.25Zm.55-5.54a6.731,6.731,0,0,1-2.35-1.25s-.28-.42.55-1a3.49,3.49,0,0,1,2.22-.28,3.921,3.921,0,0,1,.83.42,7.24,7.24,0,0,1,1.66,2.35c.13.74-1.94-.09-2.91-.23Zm.83-6.37a7.05,7.05,0,0,1-2.63-1.38s-.28-.55.69-1.11a3.39,3.39,0,0,1,2.49-.28,2.341,2.341,0,0,1,1,.55,9.261,9.261,0,0,1,1.94,2.63c-.03.84-2.38-.26-3.45-.4Zm-.55-25.75a5.879,5.879,0,0,1-1.94-1s-.28-.28.55-.69a3.24,3.24,0,0,1,1.94-.14,2,2,0,0,1,.69.42c.28.28,1.38,1.25,1.38,1.8s-1.79-.24-2.63-.38Zm3,6.23c.14.55-1.8-.14-2.77-.28a6.48,6.48,0,0,1-2.08-1.11s-.28-.42.55-.83a2.72,2.72,0,0,1,1.94-.28,3.921,3.921,0,0,1,.83.42,7.3,7.3,0,0,1,1.57,2.09Zm-4,10.25a3.49,3.49,0,0,1,2.22-.28,3.919,3.919,0,0,1,.83.42,7.24,7.24,0,0,1,1.66,2.35c.14.69-1.94-.14-2.91-.42a6.731,6.731,0,0,1-2.35-1.25s-.25-.26.58-.78Zm1.8-4.71a6.73,6.73,0,0,1-2.35-1.25s-.28-.42.55-1a3.49,3.49,0,0,1,2.22-.28,3.919,3.919,0,0,1,.83.42,7.24,7.24,0,0,1,1.66,2.35c.16.87-1.92.04-2.88-.23Zm1.8-20.77c1.11.28,1.38,1,.83,1a4.27,4.27,0,0,1-1.25.14c-1.25,0-1.11-.55-2.77.28a10.61,10.61,0,0,1-2.77,1.25c-2.22.83-1.66-1.38-1.66-1.38s.14-.42.42-1.52,1.66,0,2.63,0a22.422,22.422,0,0,1,4.56.24Zm-6.23-8.58.69.42a7,7,0,0,1,1.38,1.94c.14.55-1.66-.14-2.35-.28a5.881,5.881,0,0,1-1.94-1s-.28-.42.55-.83a2,2,0,0,1,1.7-.25Zm-5-6.65a3.35,3.35,0,0,1,1.8-.28l.69.42a7,7,0,0,1,1.38,1.94c.14.55-1.66-.14-2.35-.28a5.88,5.88,0,0,1-1.94-1s-.23-.38.46-.79ZM527.44,462a1.36,1.36,0,0,1,1-.14l.42.14.69,1c0,.28-.83-.14-1.25-.14s-1-.55-1-.55S527,462.11,527.44,462Zm-55.52-65.9c-.42.28-.69.42-1.25.83s-1.38,1.94-1.8,1.52-.28-1.94-.28-1.94a23.1,23.1,0,0,1,1-2.22,2,2,0,0,1,1.52-1.11c.83,0,2.35.55,2.35,1.8s-.85.68-1.54,1.09Zm11.35,4.29s-.55.14-.69-.83a.9.9,0,0,1,.69-1.11s1.66-.83,1.66.28-1.66,1.63-1.66,1.63Zm14.81-18.83a11.7,11.7,0,0,1-4.29,4c-2.49,1.11-4.15,1.66-8.86,2.08-.69,0-.42-.42-.42-.42A52.073,52.073,0,0,0,493,384a29.993,29.993,0,0,0,4.15-2.77c1.91-1.63.94.31.94.31Zm-93,119.89c0,.69-.83,1.94-1.11,1.94s-.83-1.25-.69-1.94.28-2.63,1.38-2.35c.81.11.39,1.64.39,2.33Zm3.6-15.64s-1.25,2.63-1.66,1.52a4.349,4.349,0,0,1,.42-2.77c1.11-1,1.52-2.35,2.08-1.8s-.87,3.03-.87,3.03Zm17.17-27c-1.25,1.38-5.12,8.72-6,7.48-.83-1,3.74-7.89,4.71-9.28s1.8-1.25,1.8-1.25l.28.28a3.61,3.61,0,0,1-.82,2.75Zm10.38-10.94s-2.77.55-2.35-.42,2.49-1.38,2.49-1.38c1.52.28,1.8.42,1.66,1.11.11.67-1.83.67-1.83.67Zm11.21,19.38c-1.25,1.25-1.66-.42-3.46-2.49s-1.38-3.6-1.38-3.6h.28l.28.14.69.28.42.42,1.38,1.38c.52.81,2.04,3.62,1.76,3.85ZM426,508.63c-.42,0-.83-.83-.83-.83a15.631,15.631,0,0,1-1.52-2.91A13.322,13.322,0,0,1,423,502s-.28-2.35-.28-3.18c.14-1.11.14-2.08.28-2.63a.56.56,0,0,1,.69-.42.73.73,0,0,1,.83.69v.42s0,2.49.14,4.43c0,.55,1.52,6.78,1.52,6.78S426.51,508.63,426,508.63Zm-.28-29.07c-1,1.52-1.66,1.52-1.66,1.52s-.28-.69.55-2.35,1.66-1.52,1.66-1.52l.28.28s.1.51-.87,2.07Zm9.83,58c.28-.55,2.08.83,2.08.83.69.14,1.38,1.38,1.38,1.38s.28,1-.55,1.25a1.11,1.11,0,0,1-1.38-.42s-1.85-2.48-1.57-3.04Zm13-42.36c-1.94-.42-6.09-3.6-7.75-4.43s-4.43-1.11-3.18-2.22c.14-.14.28-.42.55-.42a11.234,11.234,0,0,1,1.52.42l3,1.25a21.141,21.141,0,0,1,2.91,1.38c1.11.69,3,1.94,3,1.94l.83.69c.06.28,1.03,1.81-.91,1.39Zm16.89-27.55s-2.35,3.18-3.74,5.12c-1.8,2.63-4,6.65-4.43,6.23s1.94-4.85,3.18-7.2a9.48,9.48,0,0,1,4.29-4.71c1.78-.83.67.56.67.56Zm-7.48,138.58s0,.55-1,1.25-1.38.28-1.52.28-1.11-.55-1.11-1.11,1.66-1,1.66-1c2.63-.14,1.94.55,1.94.55Zm21.46-.83c-1-.14-1.11-.42-1-.55s.28-.42,1.38-.42,1.11.55,1.11.55c.01.42-.41.56-1.51.42ZM504,606.79c-2.08.55-2.91.28-4.71.42a33.951,33.951,0,0,1-3.74.28,15.929,15.929,0,0,1-6.65-1c-.69-.28-1.52-1.11-1.25-1.38a.81.81,0,0,1,.83-.28,77.471,77.471,0,0,0,7.75,1,37.008,37.008,0,0,0,5.54.14c1.25,0,.55-.14,2.49-.14C505,605.68,504.59,606.65,504,606.79Zm13.15-3.88a5.583,5.583,0,0,1-1.66.55c-.83.14-.42-.55-.42-.55a4.74,4.74,0,0,1,1.25-1.25c.83-.42,1.25,0,1.25,0,.31.56-.24,1.11-.38,1.25Zm10.25-26.58a10.7,10.7,0,0,0-1.38,4.71c-.28,2.08,1,7.89-1,5.68-.69-1-1.38-5.54-.83-7.75,1.03-4.97,5.05-6.38,3.25-2.64Zm-28,84.59c-.83.55.83,2.22-1.8,2.08-1.52-.14-.69-1.52-.55-1.66l1-1.38a4.41,4.41,0,0,1,1.8-1.52c.69-.42,1.25.69,1.25.69a1.92,1.92,0,0,1,.28,1c.03.37-1.22.24-1.91.79Zm14.54-14-1.25,1c-.14,0-1,.69-1.25.28s.14-1,.14-1.11a3.77,3.77,0,0,1,1.52-1.38.88.88,0,0,1,1.11,0c.42,1-.28,1.25-.28,1.25Zm6.51-242.56s-.55,1.8-1.66,2.22c-1.38.42-6.65.55-6.78.14s6.09-1,8.45-3.32c.61-.54.05.98.05.98Zm-1.94-4.57c.42-.69.14,1.11.14,1.11s-.42,1.8-1.38,2.35c-1.25.69-4.29,1.52-4.57,1.11.06-.26,4.08-1.5,5.88-4.55ZM510,379a3.44,3.44,0,0,1,1.38.42,5.25,5.25,0,0,1,1.38,2.22s.14.28-.55.28c-.42,0-.42-.69-.83-1a6.221,6.221,0,0,0-1.66-.83c-.69-.28-1.66.14-1.8-.55S510,379,510,379Zm-6.37,4.57a3.16,3.16,0,0,1,1.52-1.52,5.7,5.7,0,0,1,2.63-.69,3.4,3.4,0,0,1,1.8.69c1,.69,1.8,3,1.8,3s.28,1.52-.42,2.08-1.8-.42-2.35-1.25a3.49,3.49,0,0,0-2.08-1.38c-1.11-.42-2.77.83-3,0a7.8,7.8,0,0,1,.09-.89Zm-.42,19.11c-.83.14-.28-.69-.28-.69s2.35-1,3.88-1.8c2.49-1.25,7.2-6.23,6-3.88a10.751,10.751,0,0,1-2.22,2.49s-1.94,2.77-2.35,3.18c-1.8,1.38-4,.55-5,.69ZM483.69,456.4l.14-.28a16.59,16.59,0,0,1,10.66-1.94c3.88.55,7.61,4,7.06,4.43s-1.38,0-1.66,0L498.5,458l-2.08-.55a30,30,0,0,0-6.51-.69,19,19,0,0,0-5.26,1.11s-1.11.55-1.38-.14a1.3,1.3,0,0,1,.42-1.3Zm10.25,77.95c-9.55-7.34-21.18-22.29-19.8-23.67,1.25-1.11,6,5.81,13,13.43,7.48,8,16.2,15.64,16.48,16.61.55,1.66-6.09-3.6-9.69-6.37ZM515.67,431a61.551,61.551,0,0,1-9.55,12.18c-1.94,1.38-.69-1.11-.69-1.11a105.222,105.222,0,0,0,7.89-12.74c1.8-3.74,2.91-8.72,3.74-9.69C519,417.25,518,426.81,515.67,431Zm11.08,75.87c-4.15-5-7.2-10.38-8.17-17.17-.28-1.52-.28-3.74,1.11-3.46s1.11,2.49,1.11,3c.42,4,2.08,8,5.12,12.88,4.29,6.78,11.21,12,10.94,12.46-.7.69-7.62-4.7-10.12-7.75ZM528,636.28c-2.35,2.22-6.37,5.26-6.37,5.26h-.55v-.69l.14-.28.28-.42.28-.42.28-.42.83-1,1.94-1.8,1.94-1.8,3-3a15.362,15.362,0,0,1,1.52-1.52c.42-.28.69-.55,1.11-.83s1.25-.69,1.52-.42v.55c.14.42-3.46,4.43-6,6.78Zm8.58-102.45c-1.8,1.25-2.49,1.11-3.6,2.35-1.25,1.52-1.66,6.65-2.91,4.57s-.42-5,1.66-7.2c2.49-2.91,7.89-1.94,4.84.28Zm6.51,91.1a2.16,2.16,0,0,1,1.25-.14l.28.55c0,.14-1.11,1.66-1.66,1.66s-.42-1-.42-1a.86.86,0,0,1,.55-1.11Zm23.67-56.35c-1.25-.83.69-3.32.69-5.4,0-1.66-.28-2.91-.28-4.29a2,2,0,0,1,1.38-1.8c.28,0,.83.28,1.52,1.66S569,570,566.76,568.58ZM609.12,529c-.28,5.81-.55,10-4,14.4-4.15,5.4-11.35,10.94-9.83,6.51,1-2.63,7.34-6,9.83-13.29a41.663,41.663,0,0,0,1.66-8.58l-.28-8.45a9.358,9.358,0,0,1-.14-1.66c.42-1.11,1-.28,1-.28l.28.42C607.6,518.32,609.26,524.83,609.12,529Z" transform="translate(-400.72 -357.3)" fill="#fff"/>
  </g>
</svg>
