<svg xmlns="http://www.w3.org/2000/svg" xmlns:xlink="http://www.w3.org/1999/xlink" width="632.001" height="803.001" viewBox="0 0 632.001 803.001">
  <defs>
    <filter id="GTO" x="44" y="366.001" width="549" height="384" filterUnits="userSpaceOnUse">
      <feOffset dx="-3" dy="3" input="SourceAlpha"/>
      <feGaussianBlur stdDeviation="1" result="blur"/>
      <feFlood flood-color="#ff4d2c" flood-opacity="0.847"/>
      <feComposite operator="in" in2="blur"/>
      <feComposite in="SourceGraphic"/>
    </filter>
    <filter id="_250" x="52" y="0.001" width="542" height="499" filterUnits="userSpaceOnUse">
      <feOffset dx="-3" dy="3" input="SourceAlpha"/>
      <feGaussianBlur stdDeviation="1" result="blur-2"/>
      <feFlood flood-color="#ff4d2c" flood-opacity="0.847"/>
      <feComposite operator="in" in2="blur-2"/>
      <feComposite in="SourceGraphic"/>
    </filter>
  </defs>
  <g id="t5" transform="translate(-638 -167.999)">
    <g id="Subtraction_2" data-name="Subtraction 2" transform="translate(2570 9360)" fill="#fff">
      <path d="M -1300.500610351563 -8389.5 L -1931.500244140625 -8389.5009765625 L -1931.500122070313 -8436.5 L -1927.501220703125 -8436.5 L -1927.501220703125 -8392 L -1927.501220703125 -8391.5 L -1927.001220703125 -8391.5 L -1304.000732421875 -8391.5 L -1303.500732421875 -8391.5 L -1303.500732421875 -8392 L -1303.500610351563 -9092.498046875 L -1300.500610351563 -9092.498046875 L -1300.500610351563 -8389.5 Z M -1931.500244140625 -8493.5 L -1931.500122070313 -9191.5009765625 L -1300.500610351563 -9191.5009765625 L -1300.500610351563 -9149.498046875 L -1303.500732421875 -9149.498046875 L -1303.500610351563 -9189 L -1303.500610351563 -9189.5 L -1304.000610351563 -9189.5 L -1927.001220703125 -9189.5 L -1927.501220703125 -9189.5 L -1927.501220703125 -9189 L -1927.501220703125 -8493.5009765625 L -1931.500244140625 -8493.5 Z" stroke="none"/>
      <path d="M -1301.000610351563 -8390 L -1301.000610351563 -9091.998046875 L -1303.000610351563 -9091.998046875 L -1303.000732421875 -8392 L -1303.000732421875 -8391 L -1304.000732421875 -8391 L -1927.001220703125 -8391 L -1928.001220703125 -8391 L -1928.001220703125 -8392 L -1928.001220703125 -8436 L -1931.000122070313 -8436 L -1931.000244140625 -8390.0009765625 L -1301.000610351563 -8390 M -1931.000244140625 -8494 L -1928.001220703125 -8494.0009765625 L -1928.001220703125 -9189 L -1928.001220703125 -9190 L -1927.001220703125 -9190 L -1304.000610351563 -9190 L -1303.000610351563 -9190 L -1303.000610351563 -9189 L -1303.000732421875 -9149.998046875 L -1301.000610351563 -9149.998046875 L -1301.000610351563 -9191.0009765625 L -1931.000122070313 -9191.0009765625 L -1931.000244140625 -8494 M -1299.999633789063 -8389 L -1300.000610351563 -8389 L -1299.999633789063 -8389 Z M -1299.999633789063 -8389 L -1932.000244140625 -8389.0009765625 L -1932.000122070313 -8437 L -1927.001220703125 -8437 L -1927.001220703125 -8392 L -1304.000732421875 -8392 L -1304.000610351563 -9092.998046875 L -1300.000610351563 -9092.998046875 L -1300.000610351563 -8389.0009765625 L -1300.000610351563 -8389 Z M -1927.001220703125 -8493 L -1927.003173828125 -8493 L -1927.003173828125 -8493.0009765625 L -1932.000244140625 -8493 L -1932.000122070313 -9192.0009765625 L -1300.000610351563 -9192.0009765625 L -1300.000610351563 -9148.998046875 L -1304.000732421875 -9148.998046875 L -1304.000610351563 -9189 L -1927.001220703125 -9189 L -1927.001220703125 -8493 Z" stroke="none" fill="#707070"/>
    </g>
    <g id="Group_2" data-name="Group 2" transform="translate(-41 83)">
      <g transform="matrix(1, 0, 0, 1, 679, 85)" filter="url(#GTO)">
        <text id="GTO-2" data-name="GTO" transform="translate(50 617)" fill="#fff200" font-size="230" font-family="ConeriaScriptDemo, Coneria Script Demo" letter-spacing="0.097em"><tspan x="0" y="0">GTO</tspan></text>
      </g>
      <g transform="matrix(1, 0, 0, 1, 679, 85)" filter="url(#_250)">
        <text id="_250-2" data-name="250" transform="translate(66 327)" fill="#fff200" font-size="300" font-family="ConeriaScriptDemo, Coneria Script Demo" letter-spacing="0.179em"><tspan x="0" y="0">250</tspan></text>
      </g>
    </g>
  </g>
</svg>
